# xmcd
#
# Track frame offsets:
#	182
#	17827
#	30112
#	42645
#	53987
#	65022
#	76962
#	90000
#	105692
#	123745
#	136952
#	149515
#	166860
#	179957
#	196320
#	211527
#	225922
#
# Disc length: 3215 seconds
#
# Revision: 5
# Processed by: cddbd v1.5.2PL0 Copyright (c) Steve Scherf et al.
# Submitted via: dBpowerAMP V4.0
#
DISCID=e30c8d11
DTITLE=Various Artist - Country Collection II [CD1]
DYEAR=1993
DGENRE=Country
TTITLE0=Linda Ronstadt - Blue Bayou
TTITLE1=Freddy Fender - Wasted days and wasted nights
TTITLE2=Anne Murray - I just fall in love again
TTITLE3=Jim Croce - I'll have to say i love you in a song
TTITLE4=Billie Jo Spears - Here you come again
TTITLE5=Lynn Anderson - You're my man
TTITLE6=Johnny Cash - San Quentin
TTITLE7=Hammond and West - To all the girls i've loved before
TTITLE8=Ricky Nelson - Garden party
TTITLE9=Charlie Rich - Behind closed doors
TTITLE10=Kenny Rogers - Ruben James
TTITLE11=Willie Nelson and Ray Charles - Seven Spanish angels
TTITLE12=Sammy Kershaw - She don't know she's beautiful
TTITLE13=Grant and Forsyth - To know you is to love you
TTITLE14=Arthur Ebeling - Maria
TTITLE15=Sandra van Reys - Let us try
TTITLE16=Billy Ray Cyrus - Achy breaky heart
EXTD=
EXTT0=
EXTT1=
EXTT2=
EXTT3=
EXTT4=
EXTT5=
EXTT6=
EXTT7=
EXTT8=
EXTT9=
EXTT10=
EXTT11=
EXTT12=
EXTT13=
EXTT14=
EXTT15=
EXTT16=
PLAYORDER=
